<svg width="129" height="26" viewBox="0 0 129 26" fill="none" xmlns="http://www.w3.org/2000/svg">
<path d="M35.1469 21.1L29.802 13.9576V21.1H25.9291V4.92592H29.802V12.0222L35.1017 4.92592H39.6539L33.4936 12.8517L39.8804 21.1H35.1469Z" fill="#364439"/>
<path d="M40.9509 14.6488C40.9509 13.3278 41.1925 12.1682 41.6756 11.1698C42.1739 10.1714 42.8458 9.40336 43.6913 8.86576C44.5369 8.32816 45.4805 8.05936 46.5224 8.05936C47.4132 8.05936 48.1908 8.24368 48.8551 8.61232C49.5346 8.98096 50.0555 9.4648 50.4179 10.0638V8.24368H54.2907V21.1H50.4179V19.2798C50.0404 19.8789 49.5119 20.3627 48.8325 20.7314C48.1681 21.1 47.3905 21.2843 46.4997 21.2843C45.473 21.2843 44.5369 21.0155 43.6913 20.4779C42.8458 19.925 42.1739 19.1493 41.6756 18.1509C41.1925 17.1371 40.9509 15.9698 40.9509 14.6488ZM50.4179 14.6718C50.4179 13.6888 50.1461 12.9131 49.6025 12.3448C49.0741 11.7765 48.4248 11.4923 47.6548 11.4923C46.8847 11.4923 46.2279 11.7765 45.6844 12.3448C45.1559 12.8978 44.8917 13.6658 44.8917 14.6488C44.8917 15.6318 45.1559 16.4152 45.6844 16.9989C46.2279 17.5672 46.8847 17.8514 47.6548 17.8514C48.4248 17.8514 49.0741 17.5672 49.6025 16.9989C50.1461 16.4306 50.4179 15.6549 50.4179 14.6718Z" fill="#364439"/>
<path d="M64.7929 8.10544C66.2726 8.10544 67.4503 8.59696 68.326 9.58C69.2169 10.5477 69.6623 11.884 69.6623 13.589V21.1H65.8121V14.1189C65.8121 13.2587 65.5932 12.5906 65.1553 12.1144C64.7174 11.6382 64.1286 11.4002 63.3887 11.4002C62.6489 11.4002 62.06 11.6382 61.6222 12.1144C61.1843 12.5906 60.9654 13.2587 60.9654 14.1189V21.1H57.0925V8.24368H60.9654V9.94864C61.3579 9.38032 61.8864 8.93488 62.5508 8.61232C63.2151 8.2744 63.9625 8.10544 64.7929 8.10544Z" fill="#364439"/>
<path d="M75.9772 17.8514H81.4581V21.1H71.6514V17.9666L76.9058 11.4923H71.6967V8.24368H81.3449V11.3771L75.9772 17.8514Z" fill="#364439"/>
<path d="M89.3418 21.2843C88.1037 21.2843 86.9864 21.0155 85.9899 20.4779C85.0085 19.9403 84.2309 19.1723 83.6571 18.1739C83.0985 17.1755 82.8191 16.0082 82.8191 14.6718C82.8191 13.3509 83.106 12.1912 83.6798 11.1928C84.2535 10.179 85.0387 9.40336 86.0352 8.86576C87.0317 8.32816 88.149 8.05936 89.3871 8.05936C90.6252 8.05936 91.7425 8.32816 92.739 8.86576C93.7356 9.40336 94.5207 10.179 95.0945 11.1928C95.6682 12.1912 95.9551 13.3509 95.9551 14.6718C95.9551 15.9928 95.6607 17.1602 95.0718 18.1739C94.4981 19.1723 93.7054 19.9403 92.6937 20.4779C91.6972 21.0155 90.5799 21.2843 89.3418 21.2843ZM89.3418 17.8744C90.0817 17.8744 90.7083 17.5979 91.2216 17.045C91.7501 16.492 92.0143 15.701 92.0143 14.6718C92.0143 13.6427 91.7576 12.8517 91.2443 12.2987C90.746 11.7458 90.1269 11.4693 89.3871 11.4693C88.6322 11.4693 88.0056 11.7458 87.5073 12.2987C87.009 12.8363 86.7599 13.6274 86.7599 14.6718C86.7599 15.701 87.0015 16.492 87.4847 17.045C87.9829 17.5979 88.602 17.8744 89.3418 17.8744Z" fill="#364439"/>
<path d="M103.762 21.2843C102.524 21.2843 101.407 21.0155 100.41 20.4779C99.429 19.9403 98.6514 19.1723 98.0777 18.1739C97.519 17.1755 97.2397 16.0082 97.2397 14.6718C97.2397 13.3509 97.5265 12.1912 98.1003 11.1928C98.6741 10.179 99.4592 9.40336 100.456 8.86576C101.452 8.32816 102.57 8.05936 103.808 8.05936C105.046 8.05936 106.163 8.32816 107.16 8.86576C108.156 9.40336 108.941 10.179 109.515 11.1928C110.089 12.1912 110.376 13.3509 110.376 14.6718C110.376 15.9928 110.081 17.1602 109.492 18.1739C108.919 19.1723 108.126 19.9403 107.114 20.4779C106.118 21.0155 105 21.2843 103.762 21.2843ZM103.762 17.8744C104.502 17.8744 105.129 17.5979 105.642 17.045C106.171 16.492 106.435 15.701 106.435 14.6718C106.435 13.6427 106.178 12.8517 105.665 12.2987C105.167 11.7458 104.547 11.4693 103.808 11.4693C103.053 11.4693 102.426 11.7458 101.928 12.2987C101.43 12.8363 101.18 13.6274 101.18 14.6718C101.18 15.701 101.422 16.492 101.905 17.045C102.403 17.5979 103.023 17.8744 103.762 17.8744Z" fill="#364439"/>
<path d="M120.131 8.10544C121.61 8.10544 122.788 8.59696 123.664 9.58C124.555 10.5477 125 11.884 125 13.589V21.1H121.15V14.1189C121.15 13.2587 120.931 12.5906 120.493 12.1144C120.055 11.6382 119.466 11.4002 118.726 11.4002C117.987 11.4002 117.398 11.6382 116.96 12.1144C116.522 12.5906 116.303 13.2587 116.303 14.1189V21.1H112.43V8.24368H116.303V9.94864C116.696 9.38032 117.224 8.93488 117.888 8.61232C118.553 8.2744 119.3 8.10544 120.131 8.10544Z" fill="#364439"/>
<path d="M4 4H8.31731C9.90284 4 10.6956 4 11.3012 4.3139C11.8339 4.59002 12.267 5.0306 12.5384 5.57251C12.847 6.18857 12.847 6.99505 12.847 8.608C12.847 6.99505 12.847 6.18857 13.1555 5.57251C13.4269 5.0306 13.86 4.59002 14.3927 4.3139C14.9983 4 15.7911 4 17.3766 4H21.6939V8.392C21.6939 10.005 21.6939 10.8114 21.3853 11.4275C21.1139 11.9694 20.6808 12.41 20.1481 12.6861C19.5426 13 18.7498 13 17.1643 13C18.7498 13 19.5426 13 20.1481 13.3139C20.6808 13.59 21.1139 14.0306 21.3853 14.5725C21.6939 15.1886 21.6939 15.995 21.6939 17.608V22H17.3766C15.7911 22 14.9983 22 14.3927 21.6861C13.86 21.41 13.4269 20.9694 13.1555 20.4275C12.847 19.8114 12.847 19.005 12.847 17.392C12.847 19.005 12.847 19.8114 12.5384 20.4275C12.267 20.9694 11.8339 21.41 11.3012 21.6861C10.6956 22 9.90284 22 8.31731 22H4V13V4Z" fill="#364439"/>
</svg>
