<svg width="684" height="100" viewBox="0 0 684 100" fill="none" xmlns="http://www.w3.org/2000/svg">
<path d="M176.032 95L145.824 55.32V95H123.936V5.144H145.824V44.568L175.776 5.144H201.504L166.688 49.176L202.784 95H176.032Z" fill="white"/>
<path d="M208.834 59.16C208.834 51.8213 210.199 45.3787 212.93 39.832C215.746 34.2853 219.543 30.0187 224.322 27.032C229.101 24.0453 234.434 22.552 240.322 22.552C245.357 22.552 249.751 23.576 253.506 25.624C257.346 27.672 260.29 30.36 262.338 33.688V23.576H284.226V95H262.338V84.888C260.205 88.216 257.218 90.904 253.378 92.952C249.623 95 245.229 96.024 240.194 96.024C234.391 96.024 229.101 94.5307 224.322 91.544C219.543 88.472 215.746 84.1627 212.93 78.616C210.199 72.984 208.834 66.4987 208.834 59.16ZM262.338 59.288C262.338 53.8267 260.802 49.5173 257.73 46.36C254.743 43.2027 251.074 41.624 246.722 41.624C242.37 41.624 238.658 43.2027 235.586 46.36C232.599 49.432 231.106 53.6987 231.106 59.16C231.106 64.6213 232.599 68.9733 235.586 72.216C238.658 75.3733 242.37 76.952 246.722 76.952C251.074 76.952 254.743 75.3733 257.73 72.216C260.802 69.0587 262.338 64.7493 262.338 59.288Z" fill="white"/>
<path d="M343.581 22.808C351.944 22.808 358.6 25.5387 363.549 31C368.584 36.376 371.101 43.8 371.101 53.272V95H349.341V56.216C349.341 51.4373 348.104 47.7253 345.629 45.08C343.154 42.4347 339.826 41.112 335.645 41.112C331.464 41.112 328.136 42.4347 325.661 45.08C323.186 47.7253 321.949 51.4373 321.949 56.216V95H300.061V23.576H321.949V33.048C324.168 29.8907 327.154 27.416 330.909 25.624C334.664 23.7467 338.888 22.808 343.581 22.808Z" fill="white"/>
<path d="M406.791 76.952H437.767V95H382.343V77.592L412.039 41.624H382.599V23.576H437.127V40.984L406.791 76.952Z" fill="white"/>
<path d="M482.323 96.024C475.326 96.024 469.011 94.5307 463.379 91.544C457.832 88.5573 453.438 84.2907 450.195 78.744C447.038 73.1973 445.459 66.712 445.459 59.288C445.459 51.9493 447.08 45.5067 450.323 39.96C453.566 34.328 458.003 30.0187 463.635 27.032C469.267 24.0453 475.582 22.552 482.579 22.552C489.576 22.552 495.891 24.0453 501.523 27.032C507.155 30.0187 511.592 34.328 514.835 39.96C518.078 45.5067 519.699 51.9493 519.699 59.288C519.699 66.6267 518.035 73.112 514.707 78.744C511.464 84.2907 506.984 88.5573 501.267 91.544C495.635 94.5307 489.32 96.024 482.323 96.024ZM482.323 77.08C486.504 77.08 490.046 75.544 492.947 72.472C495.934 69.4 497.427 65.0053 497.427 59.288C497.427 53.5707 495.976 49.176 493.075 46.104C490.259 43.032 486.76 41.496 482.579 41.496C478.312 41.496 474.771 43.032 471.955 46.104C469.139 49.0907 467.731 53.4853 467.731 59.288C467.731 65.0053 469.096 69.4 471.827 72.472C474.643 75.544 478.142 77.08 482.323 77.08Z" fill="white"/>
<path d="M563.823 96.024C556.826 96.024 550.511 94.5307 544.879 91.544C539.332 88.5573 534.938 84.2907 531.695 78.744C528.538 73.1973 526.959 66.712 526.959 59.288C526.959 51.9493 528.58 45.5067 531.823 39.96C535.066 34.328 539.503 30.0187 545.135 27.032C550.767 24.0453 557.082 22.552 564.079 22.552C571.076 22.552 577.391 24.0453 583.023 27.032C588.655 30.0187 593.092 34.328 596.335 39.96C599.578 45.5067 601.199 51.9493 601.199 59.288C601.199 66.6267 599.535 73.112 596.207 78.744C592.964 84.2907 588.484 88.5573 582.767 91.544C577.135 94.5307 570.82 96.024 563.823 96.024ZM563.823 77.08C568.004 77.08 571.546 75.544 574.447 72.472C577.434 69.4 578.927 65.0053 578.927 59.288C578.927 53.5707 577.476 49.176 574.575 46.104C571.759 43.032 568.26 41.496 564.079 41.496C559.812 41.496 556.271 43.032 553.455 46.104C550.639 49.0907 549.231 53.4853 549.231 59.288C549.231 65.0053 550.596 69.4 553.327 72.472C556.143 75.544 559.642 77.08 563.823 77.08Z" fill="white"/>
<path d="M656.331 22.808C664.694 22.808 671.35 25.5387 676.299 31C681.334 36.376 683.851 43.8 683.851 53.272V95H662.091V56.216C662.091 51.4373 660.854 47.7253 658.379 45.08C655.904 42.4347 652.576 41.112 648.395 41.112C644.214 41.112 640.886 42.4347 638.411 45.08C635.936 47.7253 634.699 51.4373 634.699 56.216V95H612.811V23.576H634.699V33.048C636.918 29.8907 639.904 27.416 643.659 25.624C647.414 23.7467 651.638 22.808 656.331 22.808Z" fill="white"/>
<path d="M0 0H24.4C33.3608 0 37.8413 0 41.2638 1.7439C44.2744 3.27787 46.7221 5.72556 48.2561 8.73615C50 12.1587 50 16.6392 50 25.6C50 16.6392 50 12.1587 51.7439 8.73615C53.2779 5.72556 55.7256 3.27787 58.7362 1.7439C62.1587 0 66.6392 0 75.6 0L100 0V24.4C100 33.3608 100 37.8413 98.2561 41.2638C96.7221 44.2744 94.2744 46.7221 91.2638 48.2561C87.8413 50 83.3608 50 74.4 50C83.3608 50 87.8413 50 91.2638 51.7439C94.2744 53.2779 96.7221 55.7256 98.2561 58.7362C100 62.1587 100 66.6392 100 75.6V100H75.6C66.6392 100 62.1587 100 58.7362 98.2561C55.7256 96.7221 53.2779 94.2744 51.7439 91.2638C50 87.8413 50 83.3608 50 74.4C50 83.3608 50 87.8413 48.2561 91.2638C46.7221 94.2744 44.2744 96.7221 41.2638 98.2561C37.8413 100 33.3608 100 24.4 100H0V50V0Z" fill="white"/>
</svg>
